<svg xmlns="http://www.w3.org/2000/svg" fill="none" viewBox="0 0 32 32"><g clip-path="url(#a)"><g fill="#fff" filter="url(#b)"><path fill-rule="evenodd" d="M11.38 18.36c1.65 0 2.98-2 2.98-4.47 0-2.47-1.33-4.47-2.98-4.47-1.64 0-2.98 2-2.98 4.47 0 2.47 1.34 4.47 2.98 4.47Zm-.9-5.67c.15-.2.96-2.36 1.05-1.98.14.6.39 1.45.75 1.98.15.24 1.86 1.24 1.5 1.36-.48.17-1.15.5-1.5 1.03a6.8 6.8 0 0 0-.75 1.98c-.1.38-.9-1.77-1.04-1.98a3.07 3.07 0 0 0-1.52-1.03c-.35-.12 1.36-1.12 1.52-1.36Zm11.62 5.67c1.65 0 2.99-2 2.99-4.47 0-2.47-1.34-4.47-2.98-4.47-1.65 0-2.98 2-2.98 4.47 0 2.47 1.33 4.47 2.98 4.47Zm-2.4-4.64c.49-.17 1.16-.5 1.51-1.03.14-.2.95-2.36 1.04-1.98.15.6.4 1.45.75 1.98.16.24 1.87 1.24 1.52 1.36A3.1 3.1 0 0 0 23 15.08c-.14.2-.95 2.36-1.04 1.98a6.53 6.53 0 0 0-.75-1.98c-.15-.23-1.86-1.23-1.5-1.36Z" clip-rule="evenodd"/><path d="M21.4 2.6c1.84-1.48 3.37.27 3.7 1.93.34 1.68 1.45 3.12 2.16 4.66.78 1.71 1 3.78 1.1 5.64a.9.9 0 1 0 1.8-.1c-.14-2.1-.4-4.37-1.28-6.28-.63-1.38-1.72-2.76-2.02-4.27a5.9 5.9 0 0 0-.86-2.4c-1.17-1.6-4.2-1.8-5.72-.59-2.13 1.71-4.39 1.92-6.78 0C12 0 8.96.2 7.8 1.77a5.9 5.9 0 0 0-.87 2.4c-.3 1.52-1.4 2.9-2.02 4.28-.88 1.91-1.15 4.18-1.27 6.27a.9.9 0 0 0 1.78.11c.11-1.86.33-3.93 1.11-5.64.7-1.54 1.81-2.98 2.15-4.66.33-1.66 1.86-3.41 3.7-1.94 2.8 2.24 5.99 2.43 9.02 0ZM3.04 18.65a.9.9 0 0 1 1.7-.38c2.4 5 8 7.41 13.35 6.82-.01.21 0 .43.02.63-.45.36-1.07.69-1.29 1.26-4.49.1-9.13-1.7-12-5.24L3.64 29.1a.9.9 0 0 1-1.78 0l1.19-10.45Zm25.72 2.25c.38-.57.74-1.19 1.06-1.86a.9.9 0 0 0-1.6-.77 11.87 11.87 0 0 1-1.83 2.75c.76-.33 1.67-.9 2.37-.13Z"/></g><path fill="#FFBD16" fill-rule="evenodd" d="m25.44 20.47.13.99c.23.1.47.24.68.4l.9-.39c.48-.22 1.02 0 1.3.45l.67 1.22c.28.46.12 1.04-.27 1.37l-.77.6c.03.25.03.54 0 .8l.77.6c1.02.84-.43 3.6-1.7 3.04l-.9-.4a2.8 2.8 0 0 1-.68.41l-.13.98c-.21 1.4-3.47 1.4-3.68 0l-.13-.98a2.9 2.9 0 0 1-.68-.4l-.9.39c-1.27.57-2.72-2.2-1.7-3.04l.77-.6a3.02 3.02 0 0 1 0-.8l-.77-.6c-1.02-.85.43-3.61 1.7-3.04l.9.39c.21-.16.45-.3.68-.4l.13-.99c.21-1.39 3.47-1.39 3.68 0Zm-1.84 7.57c1.44 0 2.61-1.2 2.61-2.68a2.65 2.65 0 0 0-2.61-2.68 2.65 2.65 0 0 0-2.61 2.68 2.65 2.65 0 0 0 2.6 2.68Z" clip-rule="evenodd"/></g><defs><clipPath id="a"><path fill="#fff" d="M0 0h32v32H0z"/></clipPath><filter id="b" width="30.31" height="31.58" x=".85" y=".41" color-interpolation-filters="sRGB" filterUnits="userSpaceOnUse"><feFlood flood-opacity="0" result="BackgroundImageFix"/><feColorMatrix in="SourceAlpha" result="hardAlpha" values="0 0 0 0 0 0 0 0 0 0 0 0 0 0 0 0 0 0 127 0"/><feOffset dy="1"/><feGaussianBlur stdDeviation=".5"/><feComposite in2="hardAlpha" operator="out"/><feColorMatrix values="0 0 0 0 0 0 0 0 0 0 0 0 0 0 0 0 0 0 0.25 0"/><feBlend in2="BackgroundImageFix" result="effect1_dropShadow_4_89"/><feBlend in="SourceGraphic" in2="effect1_dropShadow_4_89" result="shape"/></filter></defs></svg>