<svg xmlns="http://www.w3.org/2000/svg" fill="none" viewBox="0 0 32 32"><path fill="#fff" d="M15.26 31.45c.29.02.57.02.86.02a14.12 14.12 0 0 0 12.8-8.21c.2-.4.23-.79.11-1.14a.95.95 0 0 0-.75-.66c-.4-.08-.77-.02-1.08.2-.3.21-.56.5-.75.86a11.54 11.54 0 0 1-11.19 6.36v2.57Zm-2.21-18.62v7.02c0 .2.09.34.26.44.17.1.34.1.5-.02l5.48-3.51c.15-.1.22-.24.22-.42a.47.47 0 0 0-.22-.42l-5.48-3.51a.44.44 0 0 0-.5-.03.48.48 0 0 0-.26.45Z"/><path fill="#1CB49F" fill-rule="evenodd" d="M9.65 24.85a8.88 8.88 0 0 0 5.29 1.47c2.03 0 3.81-.42 5.15-1.23.54.29 1.12.52 1.7.6 1.43.17 2.86-.1 4.2-.62.57-.22.34-1.1-.25-1.1-1.46 0-2.54-.14-3.73-.54a8.59 8.59 0 0 0 1.44-2.45c.63-1.61.94-3.4.94-5.34 0-1.95-.31-3.73-.94-5.35a8.09 8.09 0 0 0-2.95-3.9c-1.37-.96-3.18-1.44-5.43-1.44-2.25 0-4.07.48-5.46 1.44a8.28 8.28 0 0 0-2.98 3.9c-.63 1.62-.95 3.4-.95 5.35 0 1.95.32 3.73.95 5.34a8.5 8.5 0 0 0 3.02 3.87Zm10.13-2.4a9.75 9.75 0 0 0 1.43-3.82 16.47 16.47 0 0 0-.03-5.98 9.86 9.86 0 0 0-.98-2.96 6 6 0 0 0-2.01-2.26 5.72 5.72 0 0 0-3.31-.87c-1.3 0-2.36.3-3.19.87A5.94 5.94 0 0 0 9.78 9.7c-.44.92-.74 1.9-.91 2.95a18.46 18.46 0 0 0-.26 3c0 .94.08 1.93.26 2.99.2 1.03.53 2 1 2.92a6.11 6.11 0 0 0 1.99 2.25c.86.59 1.97.88 3.3.88a5.7 5.7 0 0 0 3.01-.72l-4.02-2.48c-.5-.3-.29-1.1.3-1.1 1.54-.02 3.13.86 4.6 1.68.25.13.5.26.73.4Z" clip-rule="evenodd"/><path fill="#fff" d="M2.5 12.73c.22.26.52.4.88.4.38 0 .71-.13.98-.37.27-.25.44-.56.53-.95.17-.66.36-1.27.58-1.83.2-.55.5-1.11.86-1.67.24-.36.35-.72.35-1.07 0-.35-.15-.68-.44-.98-.28-.28-.6-.4-.94-.35-.34.04-.62.22-.83.54a13.96 13.96 0 0 0-2.21 5.33c-.07.36.01.68.24.95Zm11.96-10.1c.25-.25.37-.58.37-1 0-.35-.14-.64-.41-.86a1.23 1.23 0 0 0-1-.22A13.4 13.4 0 0 0 8.2 2.73c-.3.24-.46.52-.5.85-.03.33.09.63.34.88.3.3.63.46.98.48.35.03.7-.08 1.04-.32a10.51 10.51 0 0 1 3.43-1.48c.41-.08.74-.25.98-.5Zm8.81 2.3c.37-.01.7-.17 1-.47.25-.25.36-.55.32-.9a1.17 1.17 0 0 0-.52-.83c-.85-.58-1.7-1.04-2.53-1.38-.83-.34-1.77-.6-2.8-.8-.35-.07-.67 0-.94.22-.27.22-.4.5-.4.87 0 .39.12.71.37.98s.56.44.95.53c.66.17 1.27.36 1.82.57.56.22 1.12.5 1.67.87.35.24.7.35 1.06.34Zm4.63 7.83c.25.24.58.37.99.37.36 0 .65-.14.86-.4.22-.27.3-.59.23-.95-.2-1.03-.46-1.96-.8-2.8-.35-.83-.8-1.67-1.38-2.53-.24-.3-.52-.47-.85-.51-.34-.04-.63.06-.89.32-.3.3-.46.63-.48.98-.02.35.09.7.32 1.04a11.09 11.09 0 0 1 1.48 3.5c.08.4.26.73.51.98ZM15.26 28.88a11.7 11.7 0 0 1-8.7-5.1h1.86c.36 0 .67-.13.91-.38.25-.24.37-.55.37-.91s-.12-.67-.37-.91a1.24 1.24 0 0 0-.91-.37H3.28c-.36 0-.66.12-.91.37-.25.24-.37.55-.37.91v5.13a1.27 1.27 0 0 0 1.28 1.29c.37 0 .67-.13.92-.37.24-.25.37-.55.37-.92v-2.18a14.19 14.19 0 0 0 10.7 6v-2.56Z"/></svg>