<svg xmlns="http://www.w3.org/2000/svg" fill="none" viewBox="0 0 32 32"><path fill="#F1F1F1" d="M25.4 16a9.3 9.3 0 1 1-18.7 0 9.3 9.3 0 0 1 18.7 0Zm-13.2 0a3.8 3.8 0 1 0 7.6 0 3.8 3.8 0 0 0-7.6 0Z"/><path fill="#269CD5" stroke="#fff" d="M16 2.3v-.5h-3a1 1 0 0 0-1 .8l-.5 2.6c-1.2.5-2.2 1-3.1 1.8l-2.6-.8a1 1 0 0 0-1.3.4L2 11a1 1 0 0 0 .2 1.3l2 1.7v2H10v-.7c0-2.8 2.4-5.2 5.4-5.2h.5V2.2Z"/><path fill="#F9BD39" stroke="#fff" d="M16 2.3v-.5h3c.5 0 1 .3 1 .8l.5 2.6c1.2.5 2.2 1 3.1 1.8l2.6-.8c.5-.2 1 0 1.3.4L30 11c.3.4.2 1-.2 1.3l-2 1.7v2H22v-.7c0-2.8-2.4-5.2-5.4-5.2H16V2.2Z"/><path fill="#67A623" stroke="#fff" d="M16 29.8v.4h3c.5 0 1-.3 1-.8l.5-2.6c1.2-.5 2.2-1 3.1-1.8l2.6.8c.5.2 1 0 1.3-.4L30 21c.3-.4.2-1-.2-1.3l-2-1.7v-2H22v.8c0 2.8-2.4 5.2-5.4 5.2H16v7.8Z"/><path fill="#E14343" stroke="#fff" d="M16 29.8v.4h-3a1 1 0 0 1-1-.8l-.5-2.6c-1.2-.5-2.2-1-3.1-1.8l-2.6.8c-.5.2-1 0-1.3-.4L2 21a1 1 0 0 1 .2-1.3l2-1.7v-2H10v.8c0 2.8 2.4 5.2 5.4 5.2h.5v7.8Z"/></svg>