<svg xmlns="http://www.w3.org/2000/svg" fill="none" viewBox="0 0 32 32"><path fill="#FFC500" fill-rule="evenodd" d="M28.5 16.5a12.5 12.5 0 1 1-25 0 12.5 12.5 0 0 1 25 0Zm-2 0a10.5 10.5 0 1 1-21 0 10.5 10.5 0 0 1 21 0Z" clip-rule="evenodd"/><path fill="#FA005A" fill-rule="evenodd" d="M11.42 9.5c0 .3-.02.68-.07 1.05-.7 1.9-2.51-.07-3.14-.75a6.6 6.6 0 0 0-.15-.17.33.33 0 0 0-.56.24v11.01c0 .35.14.68.38.93L13 26.92c.25.25.58.39.93.39h4.14c.35 0 .68-.14.93-.39l5.12-5.11c.24-.25.38-.58.38-.93v-5.45c0-.35-.14-.68-.38-.93l-8.6-7.94a55.58 55.58 0 0 0-2.04-2c-.18-.16-.35-.32-1.5-1.46a.33.33 0 0 0-.56.23v6.16Zm6.2 5.92a2.29 2.29 0 0 1 2.3 2.3c0 .31-.07.64-.19.97a6.66 6.66 0 0 1-1.19 1.96c-.7.85-1.54 1.6-2.18 2.1-.41.33-.99.33-1.4.01-.66-.5-1.54-1.24-2.25-2.1a6 6 0 0 1-1.13-1.96 3.3 3.3 0 0 1-.16-.99 2.29 2.29 0 0 1 2.3-2.29c.77 0 1.42.4 1.83.96.05.09.18.09.24 0 .4-.56 1.05-.96 1.83-.96Z" clip-rule="evenodd"/><path fill="#FFC500" d="m19.24 16.14 6.26-7.1-3-2.64-8.1 9.18c.47.15.87.46 1.14.85.06.08.2.08.25 0 .4-.57 1.05-.96 1.83-.96.63 0 1.2.26 1.62.67Zm-5.21 5.91c-.45-.4-.91-.85-1.32-1.35-.5-.6-.9-1.25-1.12-1.93L7.5 23.4l3 2.65 3.53-4Z"/></svg>